<svg xmlns="http://www.w3.org/2000/svg" id="그룹_3" width="86.056" height="29.003" viewBox="0 0 86.056 29.003">
    <defs>
        <style>
            .cls-1{fill:#191818}
        </style>
    </defs>
    <path id="패스_1" d="M565.61 108.788l1-.97-.416-.416H556.6l-.122.411 1.018.611.56 1.048.008 8.93 1.567 1.834 7.946-1.677 1.423-1.431-.371-.371-1.5.507-6.173.5v-8.976z" class="cls-1" transform="translate(-556.474 -97.031)"/>
    <path id="패스_2" d="M585.092 108.67h-2.981l-1.6-.407-.565.219 1.393 2.02h3.754v9.746l-.33 1.06.252.2 2.646-2.043v-16.454l-4.053-.59-.229.365 1.714 1.292z" class="cls-1" transform="translate(-571.874 -93.763)"/>
    <path id="패스_3" d="M607.585 100.059l-4.38-.59-.229.364 1.714 1.174v18.563l-.376 1.061.252.2 3.019-2.044z" class="cls-1" transform="translate(-586.985 -91.826)"/>
    <g id="그룹_1" transform="translate(36.398 7.713)">
        <path id="패스_4" d="M666.929 100.356l-4.38-.684-.229.365 1.692 1.21v8.445l-.353 1.06.251.2 3.02-2.138z" class="cls-1" transform="translate(-662.319 -99.671)"/>
        <path id="패스_5" d="M727.062 100.356l-4.38-.684-.229.365 1.69 1.21v18.439l-.353 1.06.253.2 3.018-2.137z" class="cls-1" transform="translate(-701.775 -99.671)"/>
    </g>
    <g id="그룹_2" transform="translate(23.624 8.553)">
        <path id="패스_6" d="M634.081 142.384h11.332l1.419-1.419-.242-.247-1.177.394h-9.435v-2.09h9.334l.954-1v-3.775h-12.253l-1.931-.507-.225.356 1.246 1.539h10.254v2.045h-11.706l-.122.41 1.159.676.428.76v1.716z" class="cls-1" transform="translate(-629.343 -122.865)"/>
        <path id="패스_7" d="M634.569 110.252a4.292 4.292 0 0 0 0-6.726 6.078 6.078 0 0 0-7.783 0 4.312 4.312 0 0 0 0 6.726 6.08 6.08 0 0 0 7.783 0zm-5.681-1.056a3.569 3.569 0 0 1-.738-2.306 3.665 3.665 0 0 1 .738-2.329 2.155 2.155 0 0 1 3.579.023 3.721 3.721 0 0 1 .75 2.351 3.44 3.44 0 0 1-.75 2.284 2.269 2.269 0 0 1-1.8.9 2.218 2.218 0 0 1-1.779-.919z" class="cls-1" transform="translate(-625.173 -102.117)"/>
    </g>
    <path id="패스_8" d="M689.987 113.173h5.826l.954-1v-5.862h-8.316l-1.931-.505-.225.356 1.248 1.539h6.317v4.135h-8.212l-.122.41 1.158.676.428.76v5.645l.966 1.141 9.335-1.4 2.994-2.588-.242-.246-2.752 1.191-7.427.482z" class="cls-1" transform="translate(-641.148 -95.981)"/>
    <path id="패스_9" d="M758 138.2l-4.622-.319-.122.411 1.163.538.568 1.063v4.067l.966 1.141h11.418l1.419-1.419-.242-.247-1.177.394H758z" class="cls-1" transform="translate(-685.588 -117.03)"/>
    <path id="패스_10" d="M752.267 102.458a5.691 5.691 0 0 1 4.013 1.555 4.953 4.953 0 0 1 0 7.425 5.943 5.943 0 0 1-8.016 0 4.977 4.977 0 0 1 0-7.425 5.651 5.651 0 0 1 4.003-1.555zm-2.6 5.268a4.131 4.131 0 0 0 .76 2.546 2.242 2.242 0 0 0 1.838 1.015 2.284 2.284 0 0 0 1.848-.991 3.979 3.979 0 0 0 .773-2.521 4.309 4.309 0 0 0-.773-2.6 2.14 2.14 0 0 0-3.687-.024 4.242 4.242 0 0 0-.758 2.575z" class="cls-1" transform="translate(-681.221 -93.787)"/>
    <path id="패스_11" d="M787.784 107.328h2.1l1.392-2-.565-.218-1.6.406h-1.324v-5.158l-4.38-.684-.23.365 1.692 1.21v12.675l-.353 1.061.252.2 3.019-2.138z" class="cls-1" transform="translate(-705.218 -91.959)"/>
    <path id="사각형_1" fill="#2582c6" d="M0 0H5.181V1.948H0z" transform="rotate(-44.995 13.67 -20.496)"/>
    <path id="사각형_2" fill="#f1804a" d="M0 0H5.18V1.948H0z" transform="rotate(-45 23.978 -45.354)"/>
    <path id="사각형_3" fill="#98bf63" d="M0 0H5.181V1.948H0z" transform="rotate(-45 34.264 -70.212)"/>
    <path id="사각형_4" fill="#9674b0" d="M0 0H5.181V1.948H0z" transform="rotate(-45 44.562 -95.072)"/>
</svg>
